# xmcd CD database file
#
# Track frame offsets:
#	150
#	31705
#	50878
#	81325
#	98745
#	131168
#
# Disc length: 2633 seconds
#
# Revision: 2
# Processed by: cddbd v1.5.2PL0 Copyright (c) Steve Scherf et al.
# Submitted via: CDex 2.22
#
DISCID=4b0a4706
DTITLE=Amina Claudine Myers - Salutes Bessie Smith
DYEAR=1900
DGENRE=Blues
TTITLE0=Wasted Life Blues
TTITLE1=Dirty No-Gooder's Blues
TTITLE2=Jailhouse Blues
TTITLE3=It Makes My Love Come Down
TTITLE4=The Blues (Straight To You)
TTITLE5=African Blues
EXTD=
EXTT0=
EXTT1=
EXTT2=
EXTT3=
EXTT4=
EXTT5=
PLAYORDER=
